<?xml version="1.0" encoding="UTF-8" standalone="no"?>
<svg
   xmlns:dc="http://purl.org/dc/elements/1.1/"
   xmlns:cc="http://creativecommons.org/ns#"
   xmlns:rdf="http://www.w3.org/1999/02/22-rdf-syntax-ns#"
   xmlns:svg="http://www.w3.org/2000/svg"
   xmlns="http://www.w3.org/2000/svg"
   xmlns:sodipodi="http://sodipodi.sourceforge.net/DTD/sodipodi-0.dtd"
   xmlns:inkscape="http://www.inkscape.org/namespaces/inkscape"
   inkscape:version="1.1-dev (ddb55ca, 2020-02-02)"
   sodipodi:docname="logo-alerce-black.svg"
   xml:space="preserve"
   style="enable-background:new 0 0 141.7 37.5;"
   viewBox="0 0 141.7 37.5"
   y="0px"
   x="0px"
   id="Layer_1"
   version="1.1"><metadata
   id="metadata862"><rdf:RDF><cc:Work
       rdf:about=""><dc:format>image/svg+xml</dc:format><dc:type
         rdf:resource="http://purl.org/dc/dcmitype/StillImage" /><dc:title></dc:title></cc:Work></rdf:RDF></metadata><defs
   id="defs860" /><sodipodi:namedview
   inkscape:current-layer="Layer_1"
   inkscape:window-maximized="0"
   inkscape:window-y="23"
   inkscape:window-x="0"
   inkscape:cy="8.7797782"
   inkscape:cx="67.252822"
   inkscape:zoom="4.0878922"
   showgrid="false"
   id="namedview858"
   inkscape:window-height="680"
   inkscape:window-width="1207"
   inkscape:pageshadow="2"
   inkscape:pageopacity="0"
   guidetolerance="10"
   gridtolerance="10"
   objecttolerance="10"
   borderopacity="1"
   bordercolor="#666666"
   pagecolor="#ffffff" />
<style
   id="style833"
   type="text/css">
	.st0{fill-rule:evenodd;clip-rule:evenodd;fill:#FFFFFF;}
	.st1{fill:#FFFFFF;}
</style>
<g
   style="opacity:1;fill:#000000;fill-opacity:1"
   id="g855">
	<g
   style="fill:#000000;fill-opacity:1"
   id="g851">
		<g
   style="fill:#000000;fill-opacity:1"
   id="g849">
			<polygon
   style="fill:#000000;fill-opacity:1"
   id="polygon835"
   points="75.9,1.2 70.2,29.9 73.1,29.9 78.8,1.2 "
   class="st0" />
			<path
   style="fill:#000000;fill-opacity:1"
   inkscape:connector-curvature="0"
   id="path837"
   d="m 90.9,26.4 c -1.4,0.8 -2.5,1.4 -3.3,1.7 -0.8,0.3 -1.5,0.4 -2.1,0.4 -0.9,0 -1.6,-0.3 -2.2,-1 -0.6,-0.6 -0.9,-1.6 -0.9,-2.8 0,-0.5 0,-1.2 0.2,-2.1 0.1,-0.9 0.4,-1.9 0.7,-3 0.6,0 1.5,0 2.7,-0.1 1.2,-0.1 2.5,-0.4 3.8,-0.8 1.3,-0.4 2.4,-1.1 3.4,-1.9 0.9,-0.9 1.4,-2 1.4,-3.5 0,-0.9 -0.3,-1.6 -0.8,-2.3 -0.6,-0.6 -1.5,-1 -2.8,-1 -2,0.1 -3.8,0.8 -5.6,2.3 -1.7,1.5 -3.2,3.3 -4.3,5.5 -1.1,2.2 -1.7,4.4 -1.7,6.6 0,2.1 0.6,3.6 1.6,4.6 1,1 2.3,1.4 3.8,1.4 1.4,0 2.7,-0.3 3.9,-0.9 1.2,-0.6 2.2,-1.1 3,-1.6 z m 1.2,-13.1 c -0.1,1.4 -0.6,2.5 -1.5,3.2 -1,0.7 -2.1,1.2 -3.4,1.4 -1.3,0.2 -2.4,0.4 -3.3,0.4 1.2,-2.5 2.4,-4.3 3.6,-5.3 1.2,-1 2.2,-1.5 3,-1.4 0.5,0 0.9,0.2 1.2,0.5 0.3,0.1 0.4,0.6 0.4,1.2 z"
   class="st0" />
			<path
   style="fill:#000000;fill-opacity:1"
   inkscape:connector-curvature="0"
   id="path839"
   d="M 100,10.3 96.1,29.9 H 99 c 0.2,-0.9 0.4,-2.3 0.9,-4.1 0.4,-1.8 1,-3.8 1.7,-5.8 0.7,-2 1.6,-3.7 2.6,-5.2 1,-1.4 2.2,-2.2 3.5,-2.2 0.2,0 0.3,0 0.4,0 0.1,0 0.2,0 0.3,0.1 L 109,10 c -0.2,0 -0.4,-0.1 -0.5,-0.1 -0.1,0 -0.2,0 -0.3,0 -1.2,0.1 -2.2,0.5 -3.1,1.4 -0.9,0.9 -1.6,1.9 -2.2,3 -0.6,1.1 -1,2 -1.3,2.8 l 1.3,-6.8 z"
   class="st0" />
			<path
   style="fill:#000000;fill-opacity:1"
   inkscape:connector-curvature="0"
   id="path841"
   d="m 123.4,10.7 c -0.8,-0.4 -1.6,-0.6 -2.2,-0.7 -0.6,-0.1 -1,-0.1 -1.2,-0.1 -1.7,0 -3.3,0.5 -4.7,1.4 -1.4,0.9 -2.6,2.1 -3.6,3.5 -1,1.4 -1.8,3 -2.4,4.6 -0.6,1.6 -0.8,3.2 -0.8,4.7 0,2 0.5,3.6 1.5,4.6 1,1.1 2.3,1.6 3.9,1.6 1,0 2,-0.2 3,-0.6 1,-0.4 2.2,-0.9 3.4,-1.6 l -0.8,-1.5 c -0.6,0.4 -1.3,0.7 -2.3,1.2 -0.9,0.4 -1.8,0.7 -2.7,0.7 -0.7,0 -1.4,-0.3 -2.1,-0.8 -0.7,-0.5 -1,-1.6 -1,-3 0,-2 0.4,-4 1.2,-6 0.8,-2 1.8,-3.6 3.1,-5 1.3,-1.4 2.7,-2 4.2,-2.1 0.6,0 1.1,0.1 1.5,0.2 0.4,0.1 0.8,0.3 1,0.4 z"
   class="st0" />
			<path
   style="fill:#000000;fill-opacity:1"
   inkscape:connector-curvature="0"
   id="path843"
   d="m 134.6,26.4 c -1.4,0.8 -2.5,1.4 -3.3,1.7 -0.8,0.3 -1.5,0.4 -2.1,0.4 -0.9,0 -1.6,-0.3 -2.2,-1 -0.6,-0.6 -0.9,-1.6 -0.9,-2.8 0,-0.5 0,-1.2 0.2,-2.1 0.1,-0.9 0.4,-1.9 0.7,-3 0.6,0 1.5,0 2.7,-0.1 1.2,-0.1 2.5,-0.4 3.8,-0.8 1.3,-0.4 2.4,-1.1 3.4,-1.9 0.9,-0.9 1.4,-2 1.4,-3.5 0,-0.9 -0.3,-1.6 -0.8,-2.3 -0.6,-0.6 -1.5,-1 -2.8,-1 -2,0.1 -3.8,0.8 -5.6,2.3 -1.7,1.5 -3.2,3.3 -4.3,5.5 -1.1,2.2 -1.7,4.4 -1.7,6.6 0,2.1 0.6,3.6 1.6,4.6 1,1 2.3,1.4 3.8,1.4 1.4,0 2.7,-0.3 3.9,-0.9 1.2,-0.6 2.2,-1.1 3,-1.6 z m 1.2,-13.1 c -0.1,1.4 -0.6,2.5 -1.5,3.2 -1,0.7 -2.1,1.2 -3.4,1.4 -1.3,0.2 -2.4,0.4 -3.3,0.4 1.2,-2.5 2.4,-4.3 3.6,-5.3 1.2,-1 2.2,-1.5 3,-1.4 0.5,0 0.9,0.2 1.2,0.5 0.3,0.1 0.4,0.6 0.4,1.2 z"
   class="st0" />
			<g
   style="fill:#000000;fill-opacity:1"
   id="g847">
				<path
   style="fill:#000000;fill-opacity:1"
   inkscape:connector-curvature="0"
   id="path845"
   d="M 64.1,30 67.9,11 C 67.1,10.6 66.3,10.4 65.5,10.1 64.7,9.9 63.9,9.8 63,9.8 c -1.9,0 -3.5,0.5 -5,1.5 -1.5,1 -2.7,2.2 -3.8,3.7 -1,1.5 -1.8,3.1 -2.4,4.8 -0.5,1.7 -0.8,3.3 -0.8,4.9 0,1.9 0.4,3.3 1.2,4.2 0.8,0.9 1.8,1.3 3,1.3 1.4,-0.1 2.5,-0.5 3.5,-1.3 1,-0.8 1.8,-1.7 2.4,-2.7 0.6,-1 0.8,-1.3 1.1,-1.8 -0.2,1.2 -1,5.6 -1,5.6 0.6,0 1.9,0 2.9,0 z M 63.4,17.5 c -0.5,1.6 -0.9,3.1 -1.4,4.4 -0.7,1.7 -1.6,3.3 -2.6,4.5 -1,1.2 -2.1,1.9 -3.2,2 -0.6,0 -1.1,-0.2 -1.4,-0.7 -0.3,-0.4 -0.5,-0.9 -0.5,-1.3 -0.1,-0.5 -0.1,-0.9 -0.1,-1.1 v 0 c 0,-2 0.4,-4 1.1,-6.1 0.7,-2.1 1.7,-3.9 3,-5.3 1.3,-1.5 2.8,-2.2 4.4,-2.3 0.5,0 1,0.1 1.3,0.1 0.4,0.1 0.6,0.2 0.8,0.2 -0.5,2.1 -0.9,4 -1.4,5.6 z"
   class="st1" />
			</g>
		</g>
	</g>
	<path
   style="fill:#000000;fill-opacity:1"
   inkscape:connector-curvature="0"
   id="path853"
   d="M 24.6,0.3 C 13,0.3 0,9.3 0,22.3 0,31.2 7.3,37.5 17.6,37.5 33.7,37.5 42.3,25 42.3,16 42.3,6.4 35.4,0.3 24.6,0.3 Z m -0.9,19 c -1.4,0 -2.4,-0.9 -2.4,-2.1 0,-1.4 1.3,-2.9 3.2,-2.9 1.5,0 2.4,0.8 2.4,2.2 0,1.3 -1.3,2.8 -3.2,2.8 z M 35.8,19 35.6,18.9 C 31.4,17.3 29.1,13.8 26.7,9.8 26.5,9.4 26.3,9.2 26,9.2 25.7,9.2 25.3,9.5 25.1,9.7 L 10.5,25.9 C 9.5,27 8.7,27.4 7.5,27.4 6.2,27.4 5.1,26.8 4.7,25.8 4.3,24.7 4.6,23.4 5.6,22.4 L 24.1,4.8 c 1,-1 2.2,-1.4 3.3,-1.1 1,0.3 1.8,1.2 2,2.4 1,5.9 3.1,9.5 6.7,11.8 l 0.2,0.2 z"
   class="st1" />
</g>
</svg>
